<svg xmlns="http://www.w3.org/2000/svg" viewBox="0 0 480 80" width="480" height="80" fill="none" font-family="&#39;VT323&#39;, &#39;Courier New&#39;, monospace">
  
  <path d="M4 16 H16 V22 H10 V58 H16 V64 H4 Z" fill="currentColor"></path>
  
  <g fill="currentColor" transform="translate(28, 22)">
    
    <rect x="0" y="0" width="4" height="32"></rect>
    <rect x="20" y="0" width="4" height="32"></rect>
    <rect x="4" y="28" width="16" height="4"></rect>
    
    <rect x="32" y="0" width="4" height="32"></rect>
    <rect x="52" y="0" width="4" height="32"></rect>
    <rect x="36" y="4" width="4" height="4"></rect>
    <rect x="40" y="8" width="4" height="4"></rect>
    <rect x="44" y="12" width="4" height="4"></rect>
    <rect x="48" y="16" width="4" height="4"></rect>
    
    <rect x="64" y="0" width="4" height="32"></rect>
    <rect x="68" y="0" width="12" height="4"></rect>
    <rect x="68" y="28" width="12" height="4"></rect>
    <rect x="80" y="4" width="4" height="24"></rect>
    
    <rect x="92" y="0" width="4" height="32"></rect>
    <rect x="96" y="0" width="16" height="4"></rect>
    <rect x="96" y="14" width="12" height="4"></rect>
    <rect x="96" y="28" width="16" height="4"></rect>
    
    <rect x="120" y="0" width="4" height="32"></rect>
    <rect x="124" y="0" width="12" height="4"></rect>
    <rect x="136" y="4" width="4" height="10"></rect>
    <rect x="124" y="14" width="12" height="4"></rect>
    <rect x="132" y="18" width="4" height="4"></rect>
    <rect x="136" y="22" width="4" height="10"></rect>
    
    <rect x="148" y="28" width="4" height="4"></rect>
    
    <rect x="160" y="0" width="16" height="4"></rect>
    <rect x="160" y="4" width="4" height="10"></rect>
    <rect x="160" y="14" width="16" height="4"></rect>
    <rect x="176" y="18" width="4" height="10"></rect>
    <rect x="160" y="28" width="16" height="4"></rect>
    
    <rect x="188" y="0" width="20" height="4"></rect>
    <rect x="196" y="4" width="4" height="28"></rect>
    
    <rect x="216" y="0" width="4" height="32"></rect>
    <rect x="236" y="0" width="4" height="32"></rect>
    <rect x="220" y="28" width="16" height="4"></rect>
    
    <rect x="248" y="0" width="4" height="32"></rect>
    <rect x="252" y="0" width="12" height="4"></rect>
    <rect x="252" y="28" width="12" height="4"></rect>
    <rect x="264" y="4" width="4" height="24"></rect>
    
    <rect x="276" y="0" width="4" height="14"></rect>
    <rect x="296" y="0" width="4" height="14"></rect>
    <rect x="280" y="14" width="16" height="4"></rect>
    <rect x="286" y="18" width="4" height="14"></rect>
  </g>
  
  <path d="M464 16 H476 V64 H464 V58 H470 V22 H464 Z" fill="currentColor"></path>
  
  <rect x="438" y="50" width="12" height="14" fill="currentColor">
    
  </rect>
</svg>